<?xml version="1.0" encoding="UTF-8" standalone="no"?>
<!DOCTYPE svg PUBLIC "-//W3C//DTD SVG 1.1//EN"
 "http://www.w3.org/Graphics/SVG/1.1/DTD/svg11.dtd">
<!-- Generated by graphviz version 2.40.1 (20161225.0304)
 -->
<!-- Title: ObjectGraph Pages: 1 -->
<svg width="351pt" height="188pt"
 viewBox="0.00 0.00 351.00 188.00" xmlns="http://www.w3.org/2000/svg" xmlns:xlink="http://www.w3.org/1999/xlink">
<g id="graph0" class="graph" transform="scale(1 1) rotate(0) translate(4 184)">
<title>ObjectGraph</title>
<polygon fill="#ffffff" stroke="transparent" points="-4,4 -4,-184 347,-184 347,4 -4,4"/>
<!-- o4937650120 -->
<g id="node1" class="node">
<title>o4937650120</title>
<polygon fill="#ffffff" stroke="#000000" points="200.3313,-180 143.6687,-180 143.6687,-144 200.3313,-144 200.3313,-180"/>
<text text-anchor="middle" x="172" y="-164.8" font-family="Times,serif" font-size="14.00" fill="#ff0000">list</text>
<text text-anchor="middle" x="172" y="-150.8" font-family="Times,serif" font-size="14.00" fill="#ff0000">4 items</text>
</g>
<!-- o4937644104 -->
<g id="node2" class="node">
<title>o4937644104</title>
<polygon fill="#c3c3c3" stroke="#000000" points="127.3313,-108 70.6687,-108 70.6687,-72 127.3313,-72 127.3313,-108"/>
<text text-anchor="middle" x="99" y="-92.8" font-family="Times,serif" font-size="14.00" fill="#000000">list</text>
<text text-anchor="middle" x="99" y="-78.8" font-family="Times,serif" font-size="14.00" fill="#000000">4 items</text>
</g>
<!-- o4937650120&#45;&gt;o4937644104 -->
<g id="edge1" class="edge">
<title>o4937650120&#45;&gt;o4937644104</title>
<path fill="none" stroke="#000000" d="M147.6266,-143.8314C138.2225,-135.3694 127.6749,-125.1489 118.7488,-115.8971"/>
<polygon fill="#000000" stroke="#000000" points="121.0996,-113.2884 111.693,-108.4133 116.0063,-118.0904 121.0996,-113.2884"/>
</g>
<!-- o4560028848 -->
<g id="node3" class="node">
<title>o4560028848</title>
<polygon fill="#c3c3c3" stroke="#000000" points="199,-108 145,-108 145,-72 199,-72 199,-108"/>
<text text-anchor="middle" x="172" y="-92.8" font-family="Times,serif" font-size="14.00" fill="#000000">int</text>
<text text-anchor="middle" x="172" y="-78.8" font-family="Times,serif" font-size="14.00" fill="#000000">3</text>
</g>
<!-- o4937650120&#45;&gt;o4560028848 -->
<g id="edge2" class="edge">
<title>o4937650120&#45;&gt;o4560028848</title>
<path fill="none" stroke="#000000" d="M172,-143.8314C172,-136.131 172,-126.9743 172,-118.4166"/>
<polygon fill="#000000" stroke="#000000" points="175.5001,-118.4132 172,-108.4133 168.5001,-118.4133 175.5001,-118.4132"/>
</g>
<!-- o4560028816 -->
<g id="node4" class="node">
<title>o4560028816</title>
<polygon fill="#c3c3c3" stroke="#000000" points="271,-108 217,-108 217,-72 271,-72 271,-108"/>
<text text-anchor="middle" x="244" y="-92.8" font-family="Times,serif" font-size="14.00" fill="#000000">int</text>
<text text-anchor="middle" x="244" y="-78.8" font-family="Times,serif" font-size="14.00" fill="#000000">2</text>
</g>
<!-- o4937650120&#45;&gt;o4560028816 -->
<g id="edge3" class="edge">
<title>o4937650120&#45;&gt;o4560028816</title>
<path fill="none" stroke="#000000" d="M190.1686,-143.8314C198.7152,-135.2848 209.0557,-124.9443 218.3802,-115.6198"/>
<polygon fill="#000000" stroke="#000000" points="220.9905,-117.9592 225.5867,-108.4133 216.0408,-113.0095 220.9905,-117.9592"/>
</g>
<!-- o4560028784 -->
<g id="node5" class="node">
<title>o4560028784</title>
<polygon fill="#c3c3c3" stroke="#000000" points="343,-108 289,-108 289,-72 343,-72 343,-108"/>
<text text-anchor="middle" x="316" y="-92.8" font-family="Times,serif" font-size="14.00" fill="#000000">int</text>
<text text-anchor="middle" x="316" y="-78.8" font-family="Times,serif" font-size="14.00" fill="#000000">1</text>
</g>
<!-- o4937650120&#45;&gt;o4560028784 -->
<g id="edge4" class="edge">
<title>o4937650120&#45;&gt;o4560028784</title>
<path fill="none" stroke="#000000" d="M200.4498,-147.7751C223.1259,-136.4371 255.0336,-120.4832 279.5756,-108.2122"/>
<polygon fill="#000000" stroke="#000000" points="281.2074,-111.3095 288.5864,-103.7068 278.0768,-105.0485 281.2074,-111.3095"/>
</g>
<!-- o4937644104&#45;&gt;o4937650120 -->
<g id="edge5" class="edge">
<title>o4937644104&#45;&gt;o4937650120</title>
<path fill="none" stroke="#000000" d="M123.3669,-108.1628C132.8429,-116.6891 143.4806,-127.0016 152.4508,-136.3099"/>
<polygon fill="#000000" stroke="#000000" points="150.1285,-138.9492 159.5314,-143.8314 155.2254,-134.151 150.1285,-138.9492"/>
</g>
<!-- o4560028944 -->
<g id="node6" class="node">
<title>o4560028944</title>
<polygon fill="#878787" stroke="#000000" points="54,-36 0,-36 0,0 54,0 54,-36"/>
<text text-anchor="middle" x="27" y="-20.8" font-family="Times,serif" font-size="14.00" fill="#000000">int</text>
<text text-anchor="middle" x="27" y="-6.8" font-family="Times,serif" font-size="14.00" fill="#000000">6</text>
</g>
<!-- o4937644104&#45;&gt;o4560028944 -->
<g id="edge6" class="edge">
<title>o4937644104&#45;&gt;o4560028944</title>
<path fill="none" stroke="#000000" d="M80.8314,-71.8314C72.2848,-63.2848 61.9443,-52.9443 52.6198,-43.6198"/>
<polygon fill="#000000" stroke="#000000" points="54.9592,-41.0095 45.4133,-36.4133 50.0095,-45.9592 54.9592,-41.0095"/>
</g>
<!-- o4560028912 -->
<g id="node7" class="node">
<title>o4560028912</title>
<polygon fill="#878787" stroke="#000000" points="126,-36 72,-36 72,0 126,0 126,-36"/>
<text text-anchor="middle" x="99" y="-20.8" font-family="Times,serif" font-size="14.00" fill="#000000">int</text>
<text text-anchor="middle" x="99" y="-6.8" font-family="Times,serif" font-size="14.00" fill="#000000">5</text>
</g>
<!-- o4937644104&#45;&gt;o4560028912 -->
<g id="edge7" class="edge">
<title>o4937644104&#45;&gt;o4560028912</title>
<path fill="none" stroke="#000000" d="M99,-71.8314C99,-64.131 99,-54.9743 99,-46.4166"/>
<polygon fill="#000000" stroke="#000000" points="102.5001,-46.4132 99,-36.4133 95.5001,-46.4133 102.5001,-46.4132"/>
</g>
<!-- o4560028880 -->
<g id="node8" class="node">
<title>o4560028880</title>
<polygon fill="#878787" stroke="#000000" points="198,-36 144,-36 144,0 198,0 198,-36"/>
<text text-anchor="middle" x="171" y="-20.8" font-family="Times,serif" font-size="14.00" fill="#000000">int</text>
<text text-anchor="middle" x="171" y="-6.8" font-family="Times,serif" font-size="14.00" fill="#000000">4</text>
</g>
<!-- o4937644104&#45;&gt;o4560028880 -->
<g id="edge8" class="edge">
<title>o4937644104&#45;&gt;o4560028880</title>
<path fill="none" stroke="#000000" d="M117.1686,-71.8314C125.7152,-63.2848 136.0557,-52.9443 145.3802,-43.6198"/>
<polygon fill="#000000" stroke="#000000" points="147.9905,-45.9592 152.5867,-36.4133 143.0408,-41.0095 147.9905,-45.9592"/>
</g>
</g>
</svg>
