<?xml version="1.0" encoding="UTF-8" standalone="no"?>
<!DOCTYPE svg PUBLIC "-//W3C//DTD SVG 1.1//EN"
 "http://www.w3.org/Graphics/SVG/1.1/DTD/svg11.dtd">
<!-- Generated by graphviz version 2.40.1 (20161225.0304)
 -->
<!-- Title: ObjectGraph Pages: 1 -->
<svg width="773pt" height="461pt"
 viewBox="0.00 0.00 772.63 461.00" xmlns="http://www.w3.org/2000/svg" xmlns:xlink="http://www.w3.org/1999/xlink">
<g id="graph0" class="graph" transform="scale(1 1) rotate(0) translate(4 457)">
<title>ObjectGraph</title>
<polygon fill="#ffffff" stroke="transparent" points="-4,4 -4,-457 768.6338,-457 768.6338,4 -4,4"/>
<!-- o4937648712 -->
<g id="node1" class="node">
<title>o4937648712</title>
<polygon fill="#ffffff" stroke="#000000" points="56.7468,-109 .0842,-109 .0842,-73 56.7468,-73 56.7468,-109"/>
<text text-anchor="middle" x="28.4155" y="-93.8" font-family="Times,serif" font-size="14.00" fill="#ff0000">list</text>
<text text-anchor="middle" x="28.4155" y="-79.8" font-family="Times,serif" font-size="14.00" fill="#ff0000">4 items</text>
</g>
<!-- o4598361928 -->
<g id="node3" class="node">
<title>o4598361928</title>
<polygon fill="#c3c3c3" stroke="#000000" points="88.7468,-36 32.0842,-36 32.0842,0 88.7468,0 88.7468,-36"/>
<text text-anchor="middle" x="60.4155" y="-20.8" font-family="Times,serif" font-size="14.00" fill="#000000">list</text>
<text text-anchor="middle" x="60.4155" y="-6.8" font-family="Times,serif" font-size="14.00" fill="#000000">4 items</text>
</g>
<!-- o4937648712&#45;&gt;o4598361928 -->
<g id="edge11" class="edge">
<title>o4937648712&#45;&gt;o4598361928</title>
<path fill="none" stroke="#000000" d="M30.4099,-72.9551C33.2691,-64.5319 37.5324,-54.3292 42.0312,-45.0128"/>
<polygon fill="#000000" stroke="#000000" points="45.1552,-46.5909 46.5653,-36.0904 38.9147,-43.4197 45.1552,-46.5909"/>
</g>
<!-- o4597043992 -->
<g id="node2" class="node">
<title>o4597043992</title>
<polygon fill="#c3c3c3" stroke="#000000" points="347.2468,-195 283.5842,-195 283.5842,-159 347.2468,-159 347.2468,-195"/>
<text text-anchor="middle" x="315.4155" y="-179.8" font-family="Times,serif" font-size="14.00" fill="#000000">dict</text>
<text text-anchor="middle" x="315.4155" y="-165.8" font-family="Times,serif" font-size="14.00" fill="#000000">56 items</text>
</g>
<!-- o4597043992&#45;&gt;o4937648712 -->
<g id="edge1" class="edge">
<title>o4597043992&#45;&gt;o4937648712</title>
<path fill="none" stroke="#000000" d="M283.2606,-174.9906C225.7618,-170.9504 107.9899,-160.5165 72.2017,-141 61.8087,-135.3324 52.7136,-126.1771 45.5451,-117.2399"/>
<polygon fill="#000000" stroke="#000000" points="48.3186,-115.1044 39.5216,-109.1998 42.7164,-119.3015 48.3186,-115.1044"/>
<text text-anchor="middle" x="75.5225" y="-129.8" font-family="Times,serif" font-size="14.00" fill="#000000">a</text>
</g>
<!-- o4597043992&#45;&gt;o4598361928 -->
<g id="edge10" class="edge">
<title>o4597043992&#45;&gt;o4598361928</title>
<path fill="none" stroke="#000000" d="M283.5787,-170.6851C230.4784,-159.5516 127.1119,-135.1247 101.4155,-109 84.2388,-91.5369 73.5303,-65.6129 67.384,-45.8966"/>
<polygon fill="#000000" stroke="#000000" points="70.7266,-44.8563 64.5757,-36.2297 64.0045,-46.8092 70.7266,-44.8563"/>
<text text-anchor="middle" x="104.9155" y="-86.8" font-family="Times,serif" font-size="14.00" fill="#000000">b</text>
</g>
<!-- o4599283784 -->
<g id="node8" class="node">
<title>o4599283784</title>
<polygon fill="#878787" stroke="#000000" points="391.3231,-109 117.508,-109 117.508,-73 391.3231,-73 391.3231,-109"/>
<text text-anchor="middle" x="254.4155" y="-93.8" font-family="Times,serif" font-size="14.00" fill="#000000">function</text>
<text text-anchor="middle" x="254.4155" y="-79.8" font-family="Times,serif" font-size="14.00" fill="#000000">&lt;function show_memory_info at 0x11223804</text>
</g>
<!-- o4597043992&#45;&gt;o4599283784 -->
<g id="edge15" class="edge">
<title>o4597043992&#45;&gt;o4599283784</title>
<path fill="none" stroke="#000000" d="M283.3393,-173.2064C246.5403,-168.1173 189.5953,-157.7323 176.6499,-141 168.5094,-130.4781 173.7915,-121.5283 184.6581,-114.2355"/>
<polygon fill="#000000" stroke="#000000" points="186.4961,-117.2165 193.4456,-109.2193 183.0258,-111.1372 186.4961,-117.2165"/>
<text text-anchor="middle" x="233.7983" y="-129.8" font-family="Times,serif" font-size="14.00" fill="#000000">show_memory_info</text>
</g>
<!-- o4598634832 -->
<g id="node9" class="node">
<title>o4598634832</title>
<polygon fill="#878787" stroke="#000000" points="609.829,-109 409.002,-109 409.002,-73 609.829,-73 609.829,-109"/>
<text text-anchor="middle" x="509.4155" y="-93.8" font-family="Times,serif" font-size="14.00" fill="#000000">function</text>
<text text-anchor="middle" x="509.4155" y="-79.8" font-family="Times,serif" font-size="14.00" fill="#000000">&lt;function func at 0x112199950&gt;</text>
</g>
<!-- o4597043992&#45;&gt;o4598634832 -->
<g id="edge16" class="edge">
<title>o4597043992&#45;&gt;o4598634832</title>
<path fill="none" stroke="#000000" d="M347.4507,-162.7988C377.8786,-149.3102 424.0908,-128.8244 459.376,-113.1825"/>
<polygon fill="#000000" stroke="#000000" points="460.831,-116.366 468.5546,-109.1136 457.9941,-109.9666 460.831,-116.366"/>
<text text-anchor="middle" x="436.8535" y="-129.8" font-family="Times,serif" font-size="14.00" fill="#000000">func</text>
</g>
<!-- o4598361928&#45;&gt;o4937648712 -->
<g id="edge2" class="edge">
<title>o4598361928&#45;&gt;o4937648712</title>
<path fill="none" stroke="#000000" d="M58.4057,-36.0904C55.5415,-44.5199 51.2753,-54.7241 46.7756,-64.0374"/>
<polygon fill="#000000" stroke="#000000" points="43.6539,-62.4548 42.2414,-72.9551 49.8936,-65.6275 43.6539,-62.4548"/>
</g>
<!-- o4596796656 -->
<g id="node4" class="node">
<title>o4596796656</title>
<polygon fill="#878787" stroke="#000000" points="215.2468,-367 151.5842,-367 151.5842,-331 215.2468,-331 215.2468,-367"/>
<text text-anchor="middle" x="183.4155" y="-351.8" font-family="Times,serif" font-size="14.00" fill="#000000">dict</text>
<text text-anchor="middle" x="183.4155" y="-337.8" font-family="Times,serif" font-size="14.00" fill="#000000">44 items</text>
</g>
<!-- o4596796656&#45;&gt;o4597043992 -->
<g id="edge3" class="edge">
<title>o4596796656&#45;&gt;o4597043992</title>
<path fill="none" stroke="#000000" d="M168.7457,-330.7308C153.0705,-308.8325 132.7461,-271.747 150.6431,-245 177.8157,-204.3906 234.1486,-188.007 273.3358,-181.4137"/>
<polygon fill="#000000" stroke="#000000" points="274.0437,-184.8461 283.3975,-179.8704 272.9824,-177.927 274.0437,-184.8461"/>
<text text-anchor="middle" x="172.8018" y="-258.8" font-family="Times,serif" font-size="14.00" fill="#000000">user_ns</text>
</g>
<!-- o4597044280 -->
<g id="node6" class="node">
<title>o4597044280</title>
<polygon fill="#878787" stroke="#000000" points="258.7468,-281 202.0842,-281 202.0842,-245 258.7468,-245 258.7468,-281"/>
<text text-anchor="middle" x="230.4155" y="-265.8" font-family="Times,serif" font-size="14.00" fill="#000000">dict</text>
<text text-anchor="middle" x="230.4155" y="-251.8" font-family="Times,serif" font-size="14.00" fill="#000000">3 items</text>
</g>
<!-- o4596796656&#45;&gt;o4597044280 -->
<g id="edge13" class="edge">
<title>o4596796656&#45;&gt;o4597044280</title>
<path fill="none" stroke="#000000" d="M193.383,-330.7616C199.8013,-319.0176 208.2624,-303.5355 215.4767,-290.3349"/>
<polygon fill="#000000" stroke="#000000" points="218.738,-291.6657 220.4624,-281.2121 212.5954,-288.3087 218.738,-291.6657"/>
<text text-anchor="middle" x="233.7432" y="-301.8" font-family="Times,serif" font-size="14.00" fill="#000000">ns_table</text>
</g>
<!-- o4574265160 -->
<g id="node5" class="node">
<title>o4574265160</title>
<polygon fill="#1b8700" stroke="#000000" points="351.4087,-281 279.4224,-281 279.4224,-245 351.4087,-245 351.4087,-281"/>
<text text-anchor="middle" x="315.4155" y="-265.8" font-family="Times,serif" font-size="14.00" fill="#000000">module</text>
<text text-anchor="middle" x="315.4155" y="-251.8" font-family="Times,serif" font-size="14.00" fill="#000000">__main__</text>
</g>
<!-- o4574265160&#45;&gt;o4597043992 -->
<g id="edge4" class="edge">
<title>o4574265160&#45;&gt;o4597043992</title>
<path fill="none" stroke="#000000" d="M315.4155,-244.7616C315.4155,-233.3597 315.4155,-218.4342 315.4155,-205.494"/>
<polygon fill="#000000" stroke="#000000" points="318.9156,-205.2121 315.4155,-195.2121 311.9156,-205.2121 318.9156,-205.2121"/>
<text text-anchor="middle" x="339.9121" y="-215.8" font-family="Times,serif" font-size="14.00" fill="#000000">__dict__</text>
</g>
<!-- o4597044280&#45;&gt;o4597043992 -->
<g id="edge5" class="edge">
<title>o4597044280&#45;&gt;o4597043992</title>
<path fill="none" stroke="#000000" d="M232.6448,-244.6919C234.6947,-234.4225 238.6154,-221.9225 246.0981,-213 253.6464,-203.9994 264.0231,-196.9681 274.4499,-191.6038"/>
<polygon fill="#000000" stroke="#000000" points="276.0029,-194.7411 283.5559,-187.3113 273.0181,-188.4094 276.0029,-194.7411"/>
<text text-anchor="middle" x="279.0742" y="-215.8" font-family="Times,serif" font-size="14.00" fill="#000000">user_global</text>
</g>
<!-- o4597226592 -->
<g id="node7" class="node">
<title>o4597226592</title>
<polygon fill="#878787" stroke="#000000" points="433.2468,-281 369.5842,-281 369.5842,-245 433.2468,-245 433.2468,-281"/>
<text text-anchor="middle" x="401.4155" y="-265.8" font-family="Times,serif" font-size="14.00" fill="#000000">dict</text>
<text text-anchor="middle" x="401.4155" y="-251.8" font-family="Times,serif" font-size="14.00" fill="#000000">19 items</text>
</g>
<!-- o4597226592&#45;&gt;o4597043992 -->
<g id="edge6" class="edge">
<title>o4597226592&#45;&gt;o4597043992</title>
<path fill="none" stroke="#000000" d="M391.6499,-244.6304C385.7584,-234.5861 377.6203,-222.3279 368.4155,-213 364.2612,-208.7901 359.5462,-204.776 354.6826,-201.058"/>
<polygon fill="#000000" stroke="#000000" points="356.5861,-198.1154 346.43,-195.0979 352.4877,-203.7902 356.5861,-198.1154"/>
<text text-anchor="middle" x="411.1191" y="-215.8" font-family="Times,serif" font-size="14.00" fill="#000000">namespace</text>
</g>
<!-- o4599283784&#45;&gt;o4597043992 -->
<g id="edge7" class="edge">
<title>o4599283784&#45;&gt;o4597043992</title>
<path fill="none" stroke="#000000" d="M277.0779,-109.0087C282.8995,-114.3711 288.8115,-120.5502 293.4155,-127 298.297,-133.8384 302.4346,-141.9319 305.7586,-149.5928"/>
<polygon fill="#000000" stroke="#000000" points="302.5415,-150.9738 309.5286,-158.9382 309.0332,-148.3549 302.5415,-150.9738"/>
<text text-anchor="middle" x="335.6362" y="-129.8" font-family="Times,serif" font-size="14.00" fill="#000000">__globals__</text>
</g>
<!-- o4598634832&#45;&gt;o4597043992 -->
<g id="edge8" class="edge">
<title>o4598634832&#45;&gt;o4597043992</title>
<path fill="none" stroke="#000000" d="M496.5768,-109.2496C488.0693,-120.0281 475.9979,-133.0739 462.4155,-141 430.0994,-159.8584 388.2502,-168.8758 357.473,-173.1652"/>
<polygon fill="#000000" stroke="#000000" points="356.9631,-169.7018 347.4898,-174.446 357.8539,-176.6449 356.9631,-169.7018"/>
<text text-anchor="middle" x="514.6362" y="-129.8" font-family="Times,serif" font-size="14.00" fill="#000000">__globals__</text>
</g>
<!-- o140307327709512 -->
<g id="node10" class="node">
<title>o140307327709512</title>
<polygon fill="#878787" stroke="#000000" points="675.5691,-281 451.2619,-281 451.2619,-245 675.5691,-245 675.5691,-281"/>
<text text-anchor="middle" x="563.4155" y="-265.8" font-family="Times,serif" font-size="14.00" fill="#000000">frame</text>
<text text-anchor="middle" x="563.4155" y="-251.8" font-family="Times,serif" font-size="14.00" fill="#000000">&lt;ipython&#45;input&#45;18&#45;67720c8935a0&gt;:1</text>
</g>
<!-- o140307327709512&#45;&gt;o4597043992 -->
<g id="edge9" class="edge">
<title>o140307327709512&#45;&gt;o4597043992</title>
<path fill="none" stroke="#000000" d="M524.317,-244.9127C501.5767,-234.7782 472.202,-222.3392 445.4155,-213 416.3278,-202.8585 382.81,-193.6344 357.0944,-187.0623"/>
<polygon fill="#000000" stroke="#000000" points="357.8471,-183.6426 347.2946,-184.5894 356.1343,-190.4299 357.8471,-183.6426"/>
<text text-anchor="middle" x="504.5742" y="-215.8" font-family="Times,serif" font-size="14.00" fill="#000000">f_locals</text>
</g>
<!-- o4571645096 -->
<g id="node11" class="node">
<title>o4571645096</title>
<polygon fill="#4c4c4c" stroke="#000000" points="311.9638,-453 54.8673,-453 54.8673,-417 311.9638,-417 311.9638,-453"/>
<text text-anchor="middle" x="183.4155" y="-437.8" font-family="Times,serif" font-size="14.00" fill="#ffffff">ZMQInteractiveShell</text>
<text text-anchor="middle" x="183.4155" y="-423.8" font-family="Times,serif" font-size="14.00" fill="#ffffff">&lt;ipykernel.zmqshell.ZMQInteractiveShell </text>
</g>
<!-- o4571645096&#45;&gt;o4596796656 -->
<g id="edge12" class="edge">
<title>o4571645096&#45;&gt;o4596796656</title>
<path fill="none" stroke="#000000" d="M183.4155,-416.7616C183.4155,-405.3597 183.4155,-390.4342 183.4155,-377.494"/>
<polygon fill="#000000" stroke="#000000" points="186.9156,-377.2121 183.4155,-367.2121 179.9156,-377.2121 186.9156,-377.2121"/>
<text text-anchor="middle" x="207.9121" y="-387.8" font-family="Times,serif" font-size="14.00" fill="#000000">__dict__</text>
</g>
<!-- o4597264792 -->
<g id="node12" class="node">
<title>o4597264792</title>
<polygon fill="#4c4c4c" stroke="#000000" points="530.0943,-367 272.7368,-367 272.7368,-331 530.0943,-331 530.0943,-367"/>
<text text-anchor="middle" x="401.4155" y="-351.8" font-family="Times,serif" font-size="14.00" fill="#ffffff">IPCompleter</text>
<text text-anchor="middle" x="401.4155" y="-337.8" font-family="Times,serif" font-size="14.00" fill="#ffffff">&lt;IPython.core.completer.IPCompleter obje</text>
</g>
<!-- o4597264792&#45;&gt;o4597226592 -->
<g id="edge14" class="edge">
<title>o4597264792&#45;&gt;o4597226592</title>
<path fill="none" stroke="#000000" d="M401.4155,-330.7616C401.4155,-319.3597 401.4155,-304.4342 401.4155,-291.494"/>
<polygon fill="#000000" stroke="#000000" points="404.9156,-291.2121 401.4155,-281.2121 397.9156,-291.2121 404.9156,-291.2121"/>
<text text-anchor="middle" x="425.9121" y="-301.8" font-family="Times,serif" font-size="14.00" fill="#000000">__dict__</text>
</g>
<!-- o4937649544 -->
<g id="node13" class="node">
<title>o4937649544</title>
<polygon fill="#4c4c4c" stroke="#000000" points="764.8525,-367 547.9786,-367 547.9786,-331 764.8525,-331 764.8525,-367"/>
<text text-anchor="middle" x="656.4155" y="-351.8" font-family="Times,serif" font-size="14.00" fill="#ffffff">traceback</text>
<text text-anchor="middle" x="656.4155" y="-337.8" font-family="Times,serif" font-size="14.00" fill="#ffffff">&lt;traceback object at 0x1264e8d88&gt;</text>
</g>
<!-- o4937649544&#45;&gt;o140307327709512 -->
<g id="edge17" class="edge">
<title>o4937649544&#45;&gt;o140307327709512</title>
<path fill="none" stroke="#000000" d="M636.6926,-330.7616C623.2529,-318.3335 605.2861,-301.719 590.5071,-288.0524"/>
<polygon fill="#000000" stroke="#000000" points="592.8283,-285.4318 583.11,-281.2121 588.0757,-290.5712 592.8283,-285.4318"/>
</g>
</g>
</svg>
